<svg width="1440" height="1249" viewBox="0 0 1440 1249" fill="none" xmlns="http://www.w3.org/2000/svg">
<path d="M2429.27 100.987C2332.83 22.4509 2176.64 -22.9349 1989.26 12.0443C1702.38 65.6937 1392.28 325.641 1102.08 413.716C889.219 478.497 732.952 422.548 555.784 396.658C378.616 370.769 207.079 332.125 3.98304 348.729C-199.113 365.332 -448.525 452.952 -585.587 598.347C-679.603 698.135 -703.866 805.903 -701.04 900.126C-692.809 1172.19 -363.531 1603.06 -21.7644 1666.24C320.002 1729.42 665.776 1423.71 1069.67 1228.01C1374.41 1080.36 1649.73 872.049 1967.4 765.64C2101.84 720.5 2238.84 695.702 2370.67 639.722C2475.34 595.313 2590.91 516.707 2624.44 437.222C2641.36 397.105 2610.15 379.386 2596.87 349.405C2578.09 306.906 2558.8 264.636 2534.48 224.763C2506.86 179.42 2473.15 136.947 2429.27 100.987Z" fill="#1C698B"/>
</svg>
