<svg width="1440" height="893" viewBox="0 0 1440 893" fill="none" xmlns="http://www.w3.org/2000/svg">
<path d="M-70.9259 315.531C-4.83008 420.893 128.487 514.057 317.174 541.144C606.074 582.52 983.261 436.003 1286.37 445.846C1508.76 452.899 1638.76 556.093 1798.22 637.538C1957.67 718.983 2107.69 810.697 2305.35 860.233C2503.01 909.77 2767.35 906.939 2943.87 813.296C3064.96 749.01 3122.57 654.753 3150.17 564.619C3229.79 304.341 3056.43 -209.488 2753.08 -379.134C2449.74 -548.78 2024.07 -370.389 1578.72 -314.847C1242.69 -272.956 915.043 -164.153 580.023 -165.463C438.211 -165.915 300.505 -186.455 157.681 -175.803C44.2878 -167.383 -90.4119 -130.082 -147.703 -65.5855C-176.619 -33.0336 -152.757 -6.22571 -149.808 26.4347C-145.681 72.7141 -141.003 118.939 -130.783 164.513C-119.192 216.328 -100.918 267.38 -70.9259 315.531Z" fill="#1C698B"/>
</svg>
