<svg width="1440" height="1442" viewBox="0 0 1440 1442" fill="none" xmlns="http://www.w3.org/2000/svg">
<path d="M1578.06 480.39C1547.04 608.185 1478.66 729.595 1376.77 781.736C1220.76 861.458 1007.3 736.442 841.976 781.736C720.674 814.775 654.596 947.272 571.348 1058.23C488.099 1169.19 410.51 1290.82 304.806 1369.61C199.103 1448.41 54.3711 1474.87 -46.7483 1387.72C-116.122 1327.88 -152.229 1226.66 -171.722 1126.79C-227.972 838.385 -158.203 231.892 -0.549816 4.00701C157.103 -223.878 398.644 -67.8939 644.961 -54.4688C830.81 -44.3574 974.809 -43.8699 1158 -83C1235.55 -99.4463 1350.4 -51.3745 1429.05 -55.2485C1491.48 -58.3672 1566.98 -30.8836 1601.47 36.3637C1618.87 70.3041 1607.13 103.611 1607.11 141.255C1607.11 194.59 1606.8 247.924 1603.43 301.138C1599.62 361.636 1592.12 422.012 1578.06 480.39Z" fill="#1C698B"/>
</svg>
