<svg width="1440" height="1667" viewBox="0 0 1440 1667" fill="none" xmlns="http://www.w3.org/2000/svg">
<path d="M1572.04 1298.16C1541.02 1400.34 1613.39 1625.31 1511.5 1667C1022 1667 1105.98 1640 861.979 1640C731.979 1640 678.123 1617.35 570 1640C461.877 1662.65 439 1640 313 1640C192 1615.5 135 1640 19.0002 1615.5C-50.3714 1567.66 -48.0069 1680.35 -67.4999 1600.5C-123.748 1369.91 -335.34 1052.73 -177.692 870.527C27.3083 415.546 561.979 870.527 861.979 870.527C1047.82 878.611 1166.54 727.632 1285.31 525.69C1364.81 390.513 1493.31 0 1622.31 0C1664.81 138.038 1560.96 889.384 1595.44 943.15C1612.85 970.286 1601.1 996.916 1601.08 1027.01C1601.08 1069.66 1600.78 1112.3 1597.41 1154.85C1593.6 1203.22 1586.09 1251.49 1572.04 1298.16Z" fill="#1C698B"/>
</svg>
